G04 #@! TF.FileFunction,Legend,Top*
%FSLAX46Y46*%
G04 Gerber Fmt 4.6, Leading zero omitted, Abs format (unit mm)*
G04 Created by KiCad (PCBNEW 0.201602020917+6532~42~ubuntu15.04.1-product) date Fri 12 Feb 2016 04:20:17 PM EST*
%MOMM*%
G01*
G04 APERTURE LIST*
%ADD10C,0.100000*%
%ADD11C,0.200000*%
%ADD12C,0.300000*%
%ADD13C,0.250000*%
%ADD14C,0.150000*%
G04 APERTURE END LIST*
D10*
D11*
X68400000Y-90800000D02*
X68400000Y-86400000D01*
X82600000Y-90800000D02*
X68400000Y-90800000D01*
X82600000Y-86400000D02*
X82600000Y-90800000D01*
X68400000Y-86400000D02*
X82600000Y-86400000D01*
X42492857Y-86957619D02*
X41969048Y-86957619D01*
X41969048Y-85857619D01*
X42859524Y-86957619D02*
X42859524Y-85857619D01*
X43226190Y-86643333D01*
X43592857Y-85857619D01*
X43592857Y-86957619D01*
X44064286Y-85962381D02*
X44116667Y-85910000D01*
X44221429Y-85857619D01*
X44483333Y-85857619D01*
X44588095Y-85910000D01*
X44640476Y-85962381D01*
X44692857Y-86067143D01*
X44692857Y-86171905D01*
X44640476Y-86329048D01*
X44011905Y-86957619D01*
X44692857Y-86957619D01*
X45688095Y-85857619D02*
X45164286Y-85857619D01*
X45111905Y-86381429D01*
X45164286Y-86329048D01*
X45269048Y-86276667D01*
X45530952Y-86276667D01*
X45635714Y-86329048D01*
X45688095Y-86381429D01*
X45740476Y-86486190D01*
X45740476Y-86748095D01*
X45688095Y-86852857D01*
X45635714Y-86905238D01*
X45530952Y-86957619D01*
X45269048Y-86957619D01*
X45164286Y-86905238D01*
X45111905Y-86852857D01*
X46735714Y-85857619D02*
X46211905Y-85857619D01*
X46159524Y-86381429D01*
X46211905Y-86329048D01*
X46316667Y-86276667D01*
X46578571Y-86276667D01*
X46683333Y-86329048D01*
X46735714Y-86381429D01*
X46788095Y-86486190D01*
X46788095Y-86748095D01*
X46735714Y-86852857D01*
X46683333Y-86905238D01*
X46578571Y-86957619D01*
X46316667Y-86957619D01*
X46211905Y-86905238D01*
X46159524Y-86852857D01*
X47154762Y-85857619D02*
X47888095Y-85857619D01*
X47416667Y-86957619D01*
X48778571Y-85857619D02*
X48569048Y-85857619D01*
X48464286Y-85910000D01*
X48411905Y-85962381D01*
X48307143Y-86119524D01*
X48254762Y-86329048D01*
X48254762Y-86748095D01*
X48307143Y-86852857D01*
X48359524Y-86905238D01*
X48464286Y-86957619D01*
X48673809Y-86957619D01*
X48778571Y-86905238D01*
X48830952Y-86852857D01*
X48883333Y-86748095D01*
X48883333Y-86486190D01*
X48830952Y-86381429D01*
X48778571Y-86329048D01*
X48673809Y-86276667D01*
X48464286Y-86276667D01*
X48359524Y-86329048D01*
X48307143Y-86381429D01*
X48254762Y-86486190D01*
X41130953Y-87597619D02*
X40607144Y-87597619D01*
X40554763Y-88121429D01*
X40607144Y-88069048D01*
X40711906Y-88016667D01*
X40973810Y-88016667D01*
X41078572Y-88069048D01*
X41130953Y-88121429D01*
X41183334Y-88226190D01*
X41183334Y-88488095D01*
X41130953Y-88592857D01*
X41078572Y-88645238D01*
X40973810Y-88697619D01*
X40711906Y-88697619D01*
X40607144Y-88645238D01*
X40554763Y-88592857D01*
X41497620Y-87597619D02*
X41864287Y-88697619D01*
X42230953Y-87597619D01*
X42597620Y-88278571D02*
X43435715Y-88278571D01*
X43854763Y-87597619D02*
X44535715Y-87597619D01*
X44169049Y-88016667D01*
X44326191Y-88016667D01*
X44430953Y-88069048D01*
X44483334Y-88121429D01*
X44535715Y-88226190D01*
X44535715Y-88488095D01*
X44483334Y-88592857D01*
X44430953Y-88645238D01*
X44326191Y-88697619D01*
X44011906Y-88697619D01*
X43907144Y-88645238D01*
X43854763Y-88592857D01*
X44954763Y-88383333D02*
X45478572Y-88383333D01*
X44850001Y-88697619D02*
X45216668Y-87597619D01*
X45583334Y-88697619D01*
X47154762Y-88121429D02*
X47311905Y-88173810D01*
X47364286Y-88226190D01*
X47416667Y-88330952D01*
X47416667Y-88488095D01*
X47364286Y-88592857D01*
X47311905Y-88645238D01*
X47207143Y-88697619D01*
X46788096Y-88697619D01*
X46788096Y-87597619D01*
X47154762Y-87597619D01*
X47259524Y-87650000D01*
X47311905Y-87702381D01*
X47364286Y-87807143D01*
X47364286Y-87911905D01*
X47311905Y-88016667D01*
X47259524Y-88069048D01*
X47154762Y-88121429D01*
X46788096Y-88121429D01*
X48359524Y-87964286D02*
X48359524Y-88697619D01*
X47888096Y-87964286D02*
X47888096Y-88540476D01*
X47940477Y-88645238D01*
X48045239Y-88697619D01*
X48202381Y-88697619D01*
X48307143Y-88645238D01*
X48359524Y-88592857D01*
X49354762Y-88645238D02*
X49250000Y-88697619D01*
X49040477Y-88697619D01*
X48935715Y-88645238D01*
X48883334Y-88592857D01*
X48830953Y-88488095D01*
X48830953Y-88173810D01*
X48883334Y-88069048D01*
X48935715Y-88016667D01*
X49040477Y-87964286D01*
X49250000Y-87964286D01*
X49354762Y-88016667D01*
X49826191Y-88697619D02*
X49826191Y-87597619D01*
X49930953Y-88278571D02*
X50245238Y-88697619D01*
X50245238Y-87964286D02*
X49826191Y-88383333D01*
X42335715Y-90437619D02*
X41969049Y-89913810D01*
X41707144Y-90437619D02*
X41707144Y-89337619D01*
X42126191Y-89337619D01*
X42230953Y-89390000D01*
X42283334Y-89442381D01*
X42335715Y-89547143D01*
X42335715Y-89704286D01*
X42283334Y-89809048D01*
X42230953Y-89861429D01*
X42126191Y-89913810D01*
X41707144Y-89913810D01*
X43226191Y-90385238D02*
X43121429Y-90437619D01*
X42911906Y-90437619D01*
X42807144Y-90385238D01*
X42754763Y-90280476D01*
X42754763Y-89861429D01*
X42807144Y-89756667D01*
X42911906Y-89704286D01*
X43121429Y-89704286D01*
X43226191Y-89756667D01*
X43278572Y-89861429D01*
X43278572Y-89966190D01*
X42754763Y-90070952D01*
X44221429Y-89704286D02*
X44221429Y-90594762D01*
X44169048Y-90699524D01*
X44116667Y-90751905D01*
X44011906Y-90804286D01*
X43854763Y-90804286D01*
X43750001Y-90751905D01*
X44221429Y-90385238D02*
X44116667Y-90437619D01*
X43907144Y-90437619D01*
X43802382Y-90385238D01*
X43750001Y-90332857D01*
X43697620Y-90228095D01*
X43697620Y-89913810D01*
X43750001Y-89809048D01*
X43802382Y-89756667D01*
X43907144Y-89704286D01*
X44116667Y-89704286D01*
X44221429Y-89756667D01*
X45216667Y-89704286D02*
X45216667Y-90437619D01*
X44745239Y-89704286D02*
X44745239Y-90280476D01*
X44797620Y-90385238D01*
X44902382Y-90437619D01*
X45059524Y-90437619D01*
X45164286Y-90385238D01*
X45216667Y-90332857D01*
X45897620Y-90437619D02*
X45792858Y-90385238D01*
X45740477Y-90280476D01*
X45740477Y-89337619D01*
X46788095Y-90437619D02*
X46788095Y-89861429D01*
X46735714Y-89756667D01*
X46630952Y-89704286D01*
X46421429Y-89704286D01*
X46316667Y-89756667D01*
X46788095Y-90385238D02*
X46683333Y-90437619D01*
X46421429Y-90437619D01*
X46316667Y-90385238D01*
X46264286Y-90280476D01*
X46264286Y-90175714D01*
X46316667Y-90070952D01*
X46421429Y-90018571D01*
X46683333Y-90018571D01*
X46788095Y-89966190D01*
X47154762Y-89704286D02*
X47573810Y-89704286D01*
X47311905Y-89337619D02*
X47311905Y-90280476D01*
X47364286Y-90385238D01*
X47469048Y-90437619D01*
X47573810Y-90437619D01*
X48097619Y-90437619D02*
X47992857Y-90385238D01*
X47940476Y-90332857D01*
X47888095Y-90228095D01*
X47888095Y-89913810D01*
X47940476Y-89809048D01*
X47992857Y-89756667D01*
X48097619Y-89704286D01*
X48254761Y-89704286D01*
X48359523Y-89756667D01*
X48411904Y-89809048D01*
X48464285Y-89913810D01*
X48464285Y-90228095D01*
X48411904Y-90332857D01*
X48359523Y-90385238D01*
X48254761Y-90437619D01*
X48097619Y-90437619D01*
X48935714Y-90437619D02*
X48935714Y-89704286D01*
X48935714Y-89913810D02*
X48988095Y-89809048D01*
X49040476Y-89756667D01*
X49145238Y-89704286D01*
X49249999Y-89704286D01*
D12*
X70016666Y-89207143D02*
X69935714Y-89288095D01*
X69692857Y-89369048D01*
X69530952Y-89369048D01*
X69288095Y-89288095D01*
X69126190Y-89126190D01*
X69045238Y-88964286D01*
X68964286Y-88640476D01*
X68964286Y-88397619D01*
X69045238Y-88073810D01*
X69126190Y-87911905D01*
X69288095Y-87750000D01*
X69530952Y-87669048D01*
X69692857Y-87669048D01*
X69935714Y-87750000D01*
X70016666Y-87830952D01*
X70745238Y-88721429D02*
X72040476Y-88721429D01*
X73416667Y-88478571D02*
X73659524Y-88559524D01*
X73740476Y-88640476D01*
X73821428Y-88802381D01*
X73821428Y-89045238D01*
X73740476Y-89207143D01*
X73659524Y-89288095D01*
X73497619Y-89369048D01*
X72850000Y-89369048D01*
X72850000Y-87669048D01*
X73416667Y-87669048D01*
X73578571Y-87750000D01*
X73659524Y-87830952D01*
X73740476Y-87992857D01*
X73740476Y-88154762D01*
X73659524Y-88316667D01*
X73578571Y-88397619D01*
X73416667Y-88478571D01*
X72850000Y-88478571D01*
X74550000Y-89369048D02*
X74550000Y-87669048D01*
X75278572Y-89288095D02*
X75521429Y-89369048D01*
X75926191Y-89369048D01*
X76088095Y-89288095D01*
X76169048Y-89207143D01*
X76250000Y-89045238D01*
X76250000Y-88883333D01*
X76169048Y-88721429D01*
X76088095Y-88640476D01*
X75926191Y-88559524D01*
X75602381Y-88478571D01*
X75440476Y-88397619D01*
X75359524Y-88316667D01*
X75278572Y-88154762D01*
X75278572Y-87992857D01*
X75359524Y-87830952D01*
X75440476Y-87750000D01*
X75602381Y-87669048D01*
X76007143Y-87669048D01*
X76250000Y-87750000D01*
X77950000Y-89207143D02*
X77869048Y-89288095D01*
X77626191Y-89369048D01*
X77464286Y-89369048D01*
X77221429Y-89288095D01*
X77059524Y-89126190D01*
X76978572Y-88964286D01*
X76897620Y-88640476D01*
X76897620Y-88397619D01*
X76978572Y-88073810D01*
X77059524Y-87911905D01*
X77221429Y-87750000D01*
X77464286Y-87669048D01*
X77626191Y-87669048D01*
X77869048Y-87750000D01*
X77950000Y-87830952D01*
X78678572Y-87669048D02*
X78678572Y-89045238D01*
X78759524Y-89207143D01*
X78840477Y-89288095D01*
X79002381Y-89369048D01*
X79326191Y-89369048D01*
X79488096Y-89288095D01*
X79569048Y-89207143D01*
X79650000Y-89045238D01*
X79650000Y-87669048D01*
X80459524Y-89369048D02*
X80459524Y-87669048D01*
X81026191Y-87669048D02*
X81997619Y-87669048D01*
X81511905Y-89369048D02*
X81511905Y-87669048D01*
X102871429Y-71707143D02*
X104014286Y-71707143D01*
X103442857Y-72278571D02*
X103442857Y-71135714D01*
X105442858Y-70778571D02*
X104728572Y-70778571D01*
X104657143Y-71492857D01*
X104728572Y-71421429D01*
X104871429Y-71350000D01*
X105228572Y-71350000D01*
X105371429Y-71421429D01*
X105442858Y-71492857D01*
X105514286Y-71635714D01*
X105514286Y-71992857D01*
X105442858Y-72135714D01*
X105371429Y-72207143D01*
X105228572Y-72278571D01*
X104871429Y-72278571D01*
X104728572Y-72207143D01*
X104657143Y-72135714D01*
X105942857Y-70778571D02*
X106442857Y-72278571D01*
X106942857Y-70778571D01*
X104057143Y-83450000D02*
X103914286Y-83378571D01*
X103700000Y-83378571D01*
X103485715Y-83450000D01*
X103342857Y-83592857D01*
X103271429Y-83735714D01*
X103200000Y-84021429D01*
X103200000Y-84235714D01*
X103271429Y-84521429D01*
X103342857Y-84664286D01*
X103485715Y-84807143D01*
X103700000Y-84878571D01*
X103842857Y-84878571D01*
X104057143Y-84807143D01*
X104128572Y-84735714D01*
X104128572Y-84235714D01*
X103842857Y-84235714D01*
X104771429Y-84878571D02*
X104771429Y-83378571D01*
X105628572Y-84878571D01*
X105628572Y-83378571D01*
X106342858Y-84878571D02*
X106342858Y-83378571D01*
X106700001Y-83378571D01*
X106914286Y-83450000D01*
X107057144Y-83592857D01*
X107128572Y-83735714D01*
X107200001Y-84021429D01*
X107200001Y-84235714D01*
X107128572Y-84521429D01*
X107057144Y-84664286D01*
X106914286Y-84807143D01*
X106700001Y-84878571D01*
X106342858Y-84878571D01*
X34164286Y-84292857D02*
X34378572Y-84364286D01*
X34450000Y-84435714D01*
X34521429Y-84578571D01*
X34521429Y-84792857D01*
X34450000Y-84935714D01*
X34378572Y-85007143D01*
X34235714Y-85078571D01*
X33664286Y-85078571D01*
X33664286Y-83578571D01*
X34164286Y-83578571D01*
X34307143Y-83650000D01*
X34378572Y-83721429D01*
X34450000Y-83864286D01*
X34450000Y-84007143D01*
X34378572Y-84150000D01*
X34307143Y-84221429D01*
X34164286Y-84292857D01*
X33664286Y-84292857D01*
X35092857Y-84650000D02*
X35807143Y-84650000D01*
X34950000Y-85078571D02*
X35450000Y-83578571D01*
X35950000Y-85078571D01*
X36235714Y-83578571D02*
X37092857Y-83578571D01*
X36664286Y-85078571D02*
X36664286Y-83578571D01*
X37592857Y-84507143D02*
X38735714Y-84507143D01*
X33964286Y-71492857D02*
X34178572Y-71564286D01*
X34250000Y-71635714D01*
X34321429Y-71778571D01*
X34321429Y-71992857D01*
X34250000Y-72135714D01*
X34178572Y-72207143D01*
X34035714Y-72278571D01*
X33464286Y-72278571D01*
X33464286Y-70778571D01*
X33964286Y-70778571D01*
X34107143Y-70850000D01*
X34178572Y-70921429D01*
X34250000Y-71064286D01*
X34250000Y-71207143D01*
X34178572Y-71350000D01*
X34107143Y-71421429D01*
X33964286Y-71492857D01*
X33464286Y-71492857D01*
X34892857Y-71850000D02*
X35607143Y-71850000D01*
X34750000Y-72278571D02*
X35250000Y-70778571D01*
X35750000Y-72278571D01*
X36035714Y-70778571D02*
X36892857Y-70778571D01*
X36464286Y-72278571D02*
X36464286Y-70778571D01*
X37392857Y-71707143D02*
X38535714Y-71707143D01*
X37964285Y-72278571D02*
X37964285Y-71135714D01*
D13*
X81600000Y-74600000D02*
G75*
G03X81600000Y-74600000I-500000J0D01*
G01*
D14*
X79600000Y-65600000D02*
X79600000Y-63350000D01*
X79597918Y-63350000D02*
X93602231Y-63350000D01*
X93600000Y-63350000D02*
X93600000Y-65600000D01*
X93602231Y-75850000D02*
X79597918Y-75850000D01*
X79600000Y-75850000D02*
X79600000Y-73600000D01*
X93600000Y-73600000D02*
X93600000Y-75850000D01*
X60000000Y-83850000D02*
X61000000Y-83850000D01*
X61000000Y-82150000D02*
X60000000Y-82150000D01*
X66100000Y-82250000D02*
X67100000Y-82250000D01*
X67100000Y-80550000D02*
X66100000Y-80550000D01*
X49350000Y-77365000D02*
X49350000Y-73765000D01*
X45900000Y-73765000D02*
X45900000Y-77365000D01*
X56350000Y-85000000D02*
X56350000Y-84000000D01*
X54650000Y-84000000D02*
X54650000Y-85000000D01*
X62730000Y-63285000D02*
X61730000Y-63285000D01*
X61730000Y-64985000D02*
X62730000Y-64985000D01*
X55000000Y-87650000D02*
X54000000Y-87650000D01*
X54000000Y-89350000D02*
X55000000Y-89350000D01*
X44430000Y-77365000D02*
X44430000Y-73765000D01*
X40980000Y-73765000D02*
X40980000Y-77365000D01*
X62750000Y-68650000D02*
X61750000Y-68650000D01*
X61750000Y-70350000D02*
X62750000Y-70350000D01*
X68250000Y-70900000D02*
X68250000Y-69900000D01*
X66550000Y-69900000D02*
X66550000Y-70900000D01*
X82100000Y-77150000D02*
X81100000Y-77150000D01*
X81100000Y-78850000D02*
X82100000Y-78850000D01*
X87875000Y-85800000D02*
X87875000Y-83800000D01*
X84925000Y-83800000D02*
X84925000Y-85800000D01*
X93199640Y-77796660D02*
X88800360Y-77796660D01*
X88800360Y-79699120D02*
X88800360Y-88700880D01*
X93199640Y-88700880D02*
X93199640Y-79699120D01*
X94202940Y-77342000D02*
X93103120Y-77342000D01*
X93702560Y-76742560D02*
X93702560Y-77941440D01*
X74997000Y-75626000D02*
X74997000Y-78801000D01*
X74997000Y-78801000D02*
X76775000Y-78801000D01*
X76775000Y-78801000D02*
X76775000Y-75626000D01*
X70425000Y-75626000D02*
X70425000Y-78801000D01*
X70425000Y-78801000D02*
X72203000Y-78801000D01*
X72203000Y-78801000D02*
X72203000Y-75626000D01*
X77029000Y-69530000D02*
X77029000Y-75626000D01*
X77029000Y-75626000D02*
X70171000Y-75626000D01*
X70171000Y-75626000D02*
X70171000Y-67752000D01*
X70171000Y-67625000D02*
X77029000Y-67625000D01*
X77029000Y-67752000D02*
X77029000Y-69530000D01*
X101700000Y-72900000D02*
X101700000Y-82900000D01*
X108700000Y-72900000D02*
X108700000Y-82900000D01*
X108700000Y-72900000D02*
X101700000Y-72900000D01*
X108700000Y-82900000D02*
X101700000Y-82900000D01*
X32100000Y-72900000D02*
X32100000Y-82900000D01*
X39100000Y-72900000D02*
X39100000Y-82900000D01*
X39100000Y-72900000D02*
X32100000Y-72900000D01*
X39100000Y-82900000D02*
X32100000Y-82900000D01*
X57115000Y-67550000D02*
X55915000Y-67550000D01*
X55915000Y-65800000D02*
X57115000Y-65800000D01*
X62830000Y-67550000D02*
X61630000Y-67550000D01*
X61630000Y-65800000D02*
X62830000Y-65800000D01*
X61100000Y-86375000D02*
X59900000Y-86375000D01*
X59900000Y-84625000D02*
X61100000Y-84625000D01*
X52125000Y-85100000D02*
X52125000Y-83900000D01*
X53875000Y-83900000D02*
X53875000Y-85100000D01*
X73800000Y-80375000D02*
X79000000Y-80375000D01*
X79000000Y-84025000D02*
X73800000Y-84025000D01*
X59900000Y-89625000D02*
X61100000Y-89625000D01*
X61100000Y-91375000D02*
X59900000Y-91375000D01*
X61100000Y-88875000D02*
X59900000Y-88875000D01*
X59900000Y-87125000D02*
X61100000Y-87125000D01*
D13*
X58735000Y-71800000D02*
G75*
G03X58735000Y-71800000I-100000J0D01*
G01*
D14*
X59435000Y-71800000D02*
X63835000Y-71800000D01*
X63835000Y-71800000D02*
X63835000Y-72300000D01*
X59435000Y-79800000D02*
X63835000Y-79800000D01*
X59435000Y-72300000D02*
X59435000Y-71800000D01*
X63835000Y-79300000D02*
X63835000Y-79800000D01*
X59435000Y-79800000D02*
X59435000Y-79300000D01*
X52870000Y-66070000D02*
X52870000Y-63530000D01*
X50050000Y-63250000D02*
X51600000Y-63250000D01*
X50050000Y-63250000D02*
X50050000Y-66350000D01*
X50050000Y-66350000D02*
X51600000Y-66350000D01*
X54070000Y-77870000D02*
X54070000Y-75330000D01*
X51250000Y-75050000D02*
X52800000Y-75050000D01*
X51250000Y-75050000D02*
X51250000Y-78150000D01*
X51250000Y-78150000D02*
X52800000Y-78150000D01*
X99199640Y-77796660D02*
X94800360Y-77796660D01*
X94800360Y-79699120D02*
X94800360Y-88700880D01*
X99199640Y-88700880D02*
X99199640Y-79699120D01*
X100202940Y-77342000D02*
X99103120Y-77342000D01*
X99702560Y-76742560D02*
X99702560Y-77941440D01*
X46668780Y-68489860D02*
X47029460Y-69960520D01*
X47029460Y-69960520D02*
X47308860Y-68898800D01*
X47308860Y-68898800D02*
X47618740Y-69970680D01*
X47618740Y-69970680D02*
X47959100Y-68520340D01*
X45248920Y-69180740D02*
X46038860Y-69170580D01*
X46038860Y-69170580D02*
X46049020Y-69180740D01*
X46049020Y-69180740D02*
X46049020Y-69170580D01*
X46089660Y-68459380D02*
X46089660Y-70001160D01*
X45200660Y-68449220D02*
X45200660Y-70018940D01*
X45200660Y-70018940D02*
X45210820Y-70008780D01*
X44649480Y-68550820D02*
X44298960Y-68469540D01*
X44298960Y-68469540D02*
X43978920Y-68459380D01*
X43978920Y-68459380D02*
X43740160Y-68660040D01*
X43740160Y-68660040D02*
X43709680Y-68929280D01*
X43709680Y-68929280D02*
X43950980Y-69170580D01*
X43950980Y-69170580D02*
X44339600Y-69300120D01*
X44339600Y-69300120D02*
X44519940Y-69460140D01*
X44519940Y-69460140D02*
X44560580Y-69759860D01*
X44560580Y-69759860D02*
X44329440Y-69980840D01*
X44329440Y-69980840D02*
X44009400Y-70008780D01*
X44009400Y-70008780D02*
X43658880Y-69899560D01*
X42620020Y-68449220D02*
X42371100Y-68469540D01*
X42371100Y-68469540D02*
X42129800Y-68710840D01*
X42129800Y-68710840D02*
X42040900Y-69201060D01*
X42040900Y-69201060D02*
X42068840Y-69549040D01*
X42068840Y-69549040D02*
X42269500Y-69869080D01*
X42269500Y-69869080D02*
X42520960Y-69991000D01*
X42520960Y-69991000D02*
X42830840Y-69919880D01*
X42830840Y-69919880D02*
X43049280Y-69739540D01*
X43049280Y-69739540D02*
X43120400Y-69279800D01*
X43120400Y-69279800D02*
X43069600Y-68870860D01*
X43069600Y-68870860D02*
X42960380Y-68588920D01*
X42960380Y-68588920D02*
X42599700Y-68459380D01*
X43219460Y-66729640D02*
X42960380Y-67290980D01*
X42960380Y-67290980D02*
X43498860Y-67809140D01*
X43498860Y-67809140D02*
X44019560Y-67539900D01*
X44019560Y-67539900D02*
X44298960Y-67699920D01*
X45739140Y-67679600D02*
X46069340Y-67489100D01*
X46069340Y-67489100D02*
X46508760Y-67819300D01*
X46508760Y-67819300D02*
X46981200Y-67329080D01*
X46981200Y-67329080D02*
X46699260Y-66849020D01*
X46699260Y-66849020D02*
X46889760Y-66379120D01*
X46889760Y-66379120D02*
X47499360Y-66191160D01*
X47499360Y-66191160D02*
X47499360Y-65510440D01*
X47499360Y-65510440D02*
X46940560Y-65370740D01*
X46940560Y-65370740D02*
X46739900Y-64799240D01*
X46739900Y-64799240D02*
X47009140Y-64329340D01*
X47009140Y-64329340D02*
X46539240Y-63818800D01*
X46539240Y-63818800D02*
X46021080Y-64080420D01*
X46021080Y-64080420D02*
X45551180Y-63879760D01*
X45551180Y-63879760D02*
X45381000Y-63338740D01*
X45381000Y-63338740D02*
X44690120Y-63320960D01*
X44690120Y-63320960D02*
X44479300Y-63869600D01*
X44479300Y-63869600D02*
X44060200Y-64039780D01*
X44060200Y-64039780D02*
X43509020Y-63770540D01*
X43509020Y-63770540D02*
X42990860Y-64298860D01*
X42990860Y-64298860D02*
X43239780Y-64839880D01*
X43239780Y-64839880D02*
X43069600Y-65319940D01*
X43069600Y-65319940D02*
X42520960Y-65419000D01*
X42520960Y-65419000D02*
X42510800Y-66120040D01*
X42510800Y-66120040D02*
X43069600Y-66320700D01*
X43069600Y-66320700D02*
X43209300Y-66719480D01*
X45350520Y-66699160D02*
X45650240Y-66549300D01*
X45650240Y-66549300D02*
X45850900Y-66351180D01*
X45850900Y-66351180D02*
X46000760Y-65949860D01*
X46000760Y-65949860D02*
X46000760Y-65551080D01*
X46000760Y-65551080D02*
X45850900Y-65200560D01*
X45850900Y-65200560D02*
X45398780Y-64850040D01*
X45398780Y-64850040D02*
X44949200Y-64799240D01*
X44949200Y-64799240D02*
X44550420Y-64900840D01*
X44550420Y-64900840D02*
X44149100Y-65248820D01*
X44149100Y-65248820D02*
X43999240Y-65700940D01*
X43999240Y-65700940D02*
X44050040Y-66198780D01*
X44050040Y-66198780D02*
X44298960Y-66501040D01*
X44298960Y-66501040D02*
X44649480Y-66699160D01*
X44649480Y-66699160D02*
X44298960Y-67699920D01*
X45350520Y-66699160D02*
X45749300Y-67699920D01*
X95033334Y-64452381D02*
X94557143Y-64452381D01*
X94557143Y-63452381D01*
X95890477Y-64452381D02*
X95319048Y-64452381D01*
X95604762Y-64452381D02*
X95604762Y-63452381D01*
X95509524Y-63595238D01*
X95414286Y-63690476D01*
X95319048Y-63738095D01*
X64333334Y-83357143D02*
X64285715Y-83404762D01*
X64142858Y-83452381D01*
X64047620Y-83452381D01*
X63904762Y-83404762D01*
X63809524Y-83309524D01*
X63761905Y-83214286D01*
X63714286Y-83023810D01*
X63714286Y-82880952D01*
X63761905Y-82690476D01*
X63809524Y-82595238D01*
X63904762Y-82500000D01*
X64047620Y-82452381D01*
X64142858Y-82452381D01*
X64285715Y-82500000D01*
X64333334Y-82547619D01*
X65285715Y-83452381D02*
X64714286Y-83452381D01*
X65000000Y-83452381D02*
X65000000Y-82452381D01*
X64904762Y-82595238D01*
X64809524Y-82690476D01*
X64714286Y-82738095D01*
X68233334Y-83857143D02*
X68185715Y-83904762D01*
X68042858Y-83952381D01*
X67947620Y-83952381D01*
X67804762Y-83904762D01*
X67709524Y-83809524D01*
X67661905Y-83714286D01*
X67614286Y-83523810D01*
X67614286Y-83380952D01*
X67661905Y-83190476D01*
X67709524Y-83095238D01*
X67804762Y-83000000D01*
X67947620Y-82952381D01*
X68042858Y-82952381D01*
X68185715Y-83000000D01*
X68233334Y-83047619D01*
X68614286Y-83047619D02*
X68661905Y-83000000D01*
X68757143Y-82952381D01*
X68995239Y-82952381D01*
X69090477Y-83000000D01*
X69138096Y-83047619D01*
X69185715Y-83142857D01*
X69185715Y-83238095D01*
X69138096Y-83380952D01*
X68566667Y-83952381D01*
X69185715Y-83952381D01*
X47458334Y-82882143D02*
X47410715Y-82929762D01*
X47267858Y-82977381D01*
X47172620Y-82977381D01*
X47029762Y-82929762D01*
X46934524Y-82834524D01*
X46886905Y-82739286D01*
X46839286Y-82548810D01*
X46839286Y-82405952D01*
X46886905Y-82215476D01*
X46934524Y-82120238D01*
X47029762Y-82025000D01*
X47172620Y-81977381D01*
X47267858Y-81977381D01*
X47410715Y-82025000D01*
X47458334Y-82072619D01*
X47791667Y-81977381D02*
X48410715Y-81977381D01*
X48077381Y-82358333D01*
X48220239Y-82358333D01*
X48315477Y-82405952D01*
X48363096Y-82453571D01*
X48410715Y-82548810D01*
X48410715Y-82786905D01*
X48363096Y-82882143D01*
X48315477Y-82929762D01*
X48220239Y-82977381D01*
X47934524Y-82977381D01*
X47839286Y-82929762D01*
X47791667Y-82882143D01*
X55433334Y-81557143D02*
X55385715Y-81604762D01*
X55242858Y-81652381D01*
X55147620Y-81652381D01*
X55004762Y-81604762D01*
X54909524Y-81509524D01*
X54861905Y-81414286D01*
X54814286Y-81223810D01*
X54814286Y-81080952D01*
X54861905Y-80890476D01*
X54909524Y-80795238D01*
X55004762Y-80700000D01*
X55147620Y-80652381D01*
X55242858Y-80652381D01*
X55385715Y-80700000D01*
X55433334Y-80747619D01*
X56290477Y-80985714D02*
X56290477Y-81652381D01*
X56052381Y-80604762D02*
X55814286Y-81319048D01*
X56433334Y-81319048D01*
X65633334Y-64492143D02*
X65585715Y-64539762D01*
X65442858Y-64587381D01*
X65347620Y-64587381D01*
X65204762Y-64539762D01*
X65109524Y-64444524D01*
X65061905Y-64349286D01*
X65014286Y-64158810D01*
X65014286Y-64015952D01*
X65061905Y-63825476D01*
X65109524Y-63730238D01*
X65204762Y-63635000D01*
X65347620Y-63587381D01*
X65442858Y-63587381D01*
X65585715Y-63635000D01*
X65633334Y-63682619D01*
X66538096Y-63587381D02*
X66061905Y-63587381D01*
X66014286Y-64063571D01*
X66061905Y-64015952D01*
X66157143Y-63968333D01*
X66395239Y-63968333D01*
X66490477Y-64015952D01*
X66538096Y-64063571D01*
X66585715Y-64158810D01*
X66585715Y-64396905D01*
X66538096Y-64492143D01*
X66490477Y-64539762D01*
X66395239Y-64587381D01*
X66157143Y-64587381D01*
X66061905Y-64539762D01*
X66014286Y-64492143D01*
X54433334Y-91357143D02*
X54385715Y-91404762D01*
X54242858Y-91452381D01*
X54147620Y-91452381D01*
X54004762Y-91404762D01*
X53909524Y-91309524D01*
X53861905Y-91214286D01*
X53814286Y-91023810D01*
X53814286Y-90880952D01*
X53861905Y-90690476D01*
X53909524Y-90595238D01*
X54004762Y-90500000D01*
X54147620Y-90452381D01*
X54242858Y-90452381D01*
X54385715Y-90500000D01*
X54433334Y-90547619D01*
X55290477Y-90452381D02*
X55100000Y-90452381D01*
X55004762Y-90500000D01*
X54957143Y-90547619D01*
X54861905Y-90690476D01*
X54814286Y-90880952D01*
X54814286Y-91261905D01*
X54861905Y-91357143D01*
X54909524Y-91404762D01*
X55004762Y-91452381D01*
X55195239Y-91452381D01*
X55290477Y-91404762D01*
X55338096Y-91357143D01*
X55385715Y-91261905D01*
X55385715Y-91023810D01*
X55338096Y-90928571D01*
X55290477Y-90880952D01*
X55195239Y-90833333D01*
X55004762Y-90833333D01*
X54909524Y-90880952D01*
X54861905Y-90928571D01*
X54814286Y-91023810D01*
X42538334Y-82882143D02*
X42490715Y-82929762D01*
X42347858Y-82977381D01*
X42252620Y-82977381D01*
X42109762Y-82929762D01*
X42014524Y-82834524D01*
X41966905Y-82739286D01*
X41919286Y-82548810D01*
X41919286Y-82405952D01*
X41966905Y-82215476D01*
X42014524Y-82120238D01*
X42109762Y-82025000D01*
X42252620Y-81977381D01*
X42347858Y-81977381D01*
X42490715Y-82025000D01*
X42538334Y-82072619D01*
X42871667Y-81977381D02*
X43538334Y-81977381D01*
X43109762Y-82977381D01*
X58633334Y-69957143D02*
X58585715Y-70004762D01*
X58442858Y-70052381D01*
X58347620Y-70052381D01*
X58204762Y-70004762D01*
X58109524Y-69909524D01*
X58061905Y-69814286D01*
X58014286Y-69623810D01*
X58014286Y-69480952D01*
X58061905Y-69290476D01*
X58109524Y-69195238D01*
X58204762Y-69100000D01*
X58347620Y-69052381D01*
X58442858Y-69052381D01*
X58585715Y-69100000D01*
X58633334Y-69147619D01*
X59204762Y-69480952D02*
X59109524Y-69433333D01*
X59061905Y-69385714D01*
X59014286Y-69290476D01*
X59014286Y-69242857D01*
X59061905Y-69147619D01*
X59109524Y-69100000D01*
X59204762Y-69052381D01*
X59395239Y-69052381D01*
X59490477Y-69100000D01*
X59538096Y-69147619D01*
X59585715Y-69242857D01*
X59585715Y-69290476D01*
X59538096Y-69385714D01*
X59490477Y-69433333D01*
X59395239Y-69480952D01*
X59204762Y-69480952D01*
X59109524Y-69528571D01*
X59061905Y-69576190D01*
X59014286Y-69671429D01*
X59014286Y-69861905D01*
X59061905Y-69957143D01*
X59109524Y-70004762D01*
X59204762Y-70052381D01*
X59395239Y-70052381D01*
X59490477Y-70004762D01*
X59538096Y-69957143D01*
X59585715Y-69861905D01*
X59585715Y-69671429D01*
X59538096Y-69576190D01*
X59490477Y-69528571D01*
X59395239Y-69480952D01*
X65957143Y-70566666D02*
X66004762Y-70614285D01*
X66052381Y-70757142D01*
X66052381Y-70852380D01*
X66004762Y-70995238D01*
X65909524Y-71090476D01*
X65814286Y-71138095D01*
X65623810Y-71185714D01*
X65480952Y-71185714D01*
X65290476Y-71138095D01*
X65195238Y-71090476D01*
X65100000Y-70995238D01*
X65052381Y-70852380D01*
X65052381Y-70757142D01*
X65100000Y-70614285D01*
X65147619Y-70566666D01*
X66052381Y-70090476D02*
X66052381Y-69900000D01*
X66004762Y-69804761D01*
X65957143Y-69757142D01*
X65814286Y-69661904D01*
X65623810Y-69614285D01*
X65242857Y-69614285D01*
X65147619Y-69661904D01*
X65100000Y-69709523D01*
X65052381Y-69804761D01*
X65052381Y-69995238D01*
X65100000Y-70090476D01*
X65147619Y-70138095D01*
X65242857Y-70185714D01*
X65480952Y-70185714D01*
X65576190Y-70138095D01*
X65623810Y-70090476D01*
X65671429Y-69995238D01*
X65671429Y-69804761D01*
X65623810Y-69709523D01*
X65576190Y-69661904D01*
X65480952Y-69614285D01*
X84957143Y-78357143D02*
X84909524Y-78404762D01*
X84766667Y-78452381D01*
X84671429Y-78452381D01*
X84528571Y-78404762D01*
X84433333Y-78309524D01*
X84385714Y-78214286D01*
X84338095Y-78023810D01*
X84338095Y-77880952D01*
X84385714Y-77690476D01*
X84433333Y-77595238D01*
X84528571Y-77500000D01*
X84671429Y-77452381D01*
X84766667Y-77452381D01*
X84909524Y-77500000D01*
X84957143Y-77547619D01*
X85909524Y-78452381D02*
X85338095Y-78452381D01*
X85623809Y-78452381D02*
X85623809Y-77452381D01*
X85528571Y-77595238D01*
X85433333Y-77690476D01*
X85338095Y-77738095D01*
X86528571Y-77452381D02*
X86623810Y-77452381D01*
X86719048Y-77500000D01*
X86766667Y-77547619D01*
X86814286Y-77642857D01*
X86861905Y-77833333D01*
X86861905Y-78071429D01*
X86814286Y-78261905D01*
X86766667Y-78357143D01*
X86719048Y-78404762D01*
X86623810Y-78452381D01*
X86528571Y-78452381D01*
X86433333Y-78404762D01*
X86385714Y-78357143D01*
X86338095Y-78261905D01*
X86290476Y-78071429D01*
X86290476Y-77833333D01*
X86338095Y-77642857D01*
X86385714Y-77547619D01*
X86433333Y-77500000D01*
X86528571Y-77452381D01*
X85757143Y-91157143D02*
X85709524Y-91204762D01*
X85566667Y-91252381D01*
X85471429Y-91252381D01*
X85328571Y-91204762D01*
X85233333Y-91109524D01*
X85185714Y-91014286D01*
X85138095Y-90823810D01*
X85138095Y-90680952D01*
X85185714Y-90490476D01*
X85233333Y-90395238D01*
X85328571Y-90300000D01*
X85471429Y-90252381D01*
X85566667Y-90252381D01*
X85709524Y-90300000D01*
X85757143Y-90347619D01*
X86709524Y-91252381D02*
X86138095Y-91252381D01*
X86423809Y-91252381D02*
X86423809Y-90252381D01*
X86328571Y-90395238D01*
X86233333Y-90490476D01*
X86138095Y-90538095D01*
X87661905Y-91252381D02*
X87090476Y-91252381D01*
X87376190Y-91252381D02*
X87376190Y-90252381D01*
X87280952Y-90395238D01*
X87185714Y-90490476D01*
X87090476Y-90538095D01*
X90357143Y-91957143D02*
X90309524Y-92004762D01*
X90166667Y-92052381D01*
X90071429Y-92052381D01*
X89928571Y-92004762D01*
X89833333Y-91909524D01*
X89785714Y-91814286D01*
X89738095Y-91623810D01*
X89738095Y-91480952D01*
X89785714Y-91290476D01*
X89833333Y-91195238D01*
X89928571Y-91100000D01*
X90071429Y-91052381D01*
X90166667Y-91052381D01*
X90309524Y-91100000D01*
X90357143Y-91147619D01*
X91309524Y-92052381D02*
X90738095Y-92052381D01*
X91023809Y-92052381D02*
X91023809Y-91052381D01*
X90928571Y-91195238D01*
X90833333Y-91290476D01*
X90738095Y-91338095D01*
X91690476Y-91147619D02*
X91738095Y-91100000D01*
X91833333Y-91052381D01*
X92071429Y-91052381D01*
X92166667Y-91100000D01*
X92214286Y-91147619D01*
X92261905Y-91242857D01*
X92261905Y-91338095D01*
X92214286Y-91480952D01*
X91642857Y-92052381D01*
X92261905Y-92052381D01*
X67861905Y-77852381D02*
X67861905Y-76852381D01*
X68100000Y-76852381D01*
X68242858Y-76900000D01*
X68338096Y-76995238D01*
X68385715Y-77090476D01*
X68433334Y-77280952D01*
X68433334Y-77423810D01*
X68385715Y-77614286D01*
X68338096Y-77709524D01*
X68242858Y-77804762D01*
X68100000Y-77852381D01*
X67861905Y-77852381D01*
X69385715Y-77852381D02*
X68814286Y-77852381D01*
X69100000Y-77852381D02*
X69100000Y-76852381D01*
X69004762Y-76995238D01*
X68909524Y-77090476D01*
X68814286Y-77138095D01*
X100852381Y-74538095D02*
X99852381Y-74538095D01*
X99852381Y-74157142D01*
X99900000Y-74061904D01*
X99947619Y-74014285D01*
X100042857Y-73966666D01*
X100185714Y-73966666D01*
X100280952Y-74014285D01*
X100328571Y-74061904D01*
X100376190Y-74157142D01*
X100376190Y-74538095D01*
X100852381Y-73014285D02*
X100852381Y-73585714D01*
X100852381Y-73300000D02*
X99852381Y-73300000D01*
X99995238Y-73395238D01*
X100090476Y-73490476D01*
X100138095Y-73585714D01*
X40652381Y-82938095D02*
X39652381Y-82938095D01*
X39652381Y-82557142D01*
X39700000Y-82461904D01*
X39747619Y-82414285D01*
X39842857Y-82366666D01*
X39985714Y-82366666D01*
X40080952Y-82414285D01*
X40128571Y-82461904D01*
X40176190Y-82557142D01*
X40176190Y-82938095D01*
X39747619Y-81985714D02*
X39700000Y-81938095D01*
X39652381Y-81842857D01*
X39652381Y-81604761D01*
X39700000Y-81509523D01*
X39747619Y-81461904D01*
X39842857Y-81414285D01*
X39938095Y-81414285D01*
X40080952Y-81461904D01*
X40652381Y-82033333D01*
X40652381Y-81414285D01*
X56433334Y-65252381D02*
X56100000Y-64776190D01*
X55861905Y-65252381D02*
X55861905Y-64252381D01*
X56242858Y-64252381D01*
X56338096Y-64300000D01*
X56385715Y-64347619D01*
X56433334Y-64442857D01*
X56433334Y-64585714D01*
X56385715Y-64680952D01*
X56338096Y-64728571D01*
X56242858Y-64776190D01*
X55861905Y-64776190D01*
X57385715Y-65252381D02*
X56814286Y-65252381D01*
X57100000Y-65252381D02*
X57100000Y-64252381D01*
X57004762Y-64395238D01*
X56909524Y-64490476D01*
X56814286Y-64538095D01*
X65633334Y-67127381D02*
X65300000Y-66651190D01*
X65061905Y-67127381D02*
X65061905Y-66127381D01*
X65442858Y-66127381D01*
X65538096Y-66175000D01*
X65585715Y-66222619D01*
X65633334Y-66317857D01*
X65633334Y-66460714D01*
X65585715Y-66555952D01*
X65538096Y-66603571D01*
X65442858Y-66651190D01*
X65061905Y-66651190D01*
X66014286Y-66222619D02*
X66061905Y-66175000D01*
X66157143Y-66127381D01*
X66395239Y-66127381D01*
X66490477Y-66175000D01*
X66538096Y-66222619D01*
X66585715Y-66317857D01*
X66585715Y-66413095D01*
X66538096Y-66555952D01*
X65966667Y-67127381D01*
X66585715Y-67127381D01*
X64333334Y-85952381D02*
X64000000Y-85476190D01*
X63761905Y-85952381D02*
X63761905Y-84952381D01*
X64142858Y-84952381D01*
X64238096Y-85000000D01*
X64285715Y-85047619D01*
X64333334Y-85142857D01*
X64333334Y-85285714D01*
X64285715Y-85380952D01*
X64238096Y-85428571D01*
X64142858Y-85476190D01*
X63761905Y-85476190D01*
X64666667Y-84952381D02*
X65285715Y-84952381D01*
X64952381Y-85333333D01*
X65095239Y-85333333D01*
X65190477Y-85380952D01*
X65238096Y-85428571D01*
X65285715Y-85523810D01*
X65285715Y-85761905D01*
X65238096Y-85857143D01*
X65190477Y-85904762D01*
X65095239Y-85952381D01*
X64809524Y-85952381D01*
X64714286Y-85904762D01*
X64666667Y-85857143D01*
X52633334Y-81652381D02*
X52300000Y-81176190D01*
X52061905Y-81652381D02*
X52061905Y-80652381D01*
X52442858Y-80652381D01*
X52538096Y-80700000D01*
X52585715Y-80747619D01*
X52633334Y-80842857D01*
X52633334Y-80985714D01*
X52585715Y-81080952D01*
X52538096Y-81128571D01*
X52442858Y-81176190D01*
X52061905Y-81176190D01*
X53490477Y-80985714D02*
X53490477Y-81652381D01*
X53252381Y-80604762D02*
X53014286Y-81319048D01*
X53633334Y-81319048D01*
X76233334Y-85452381D02*
X75900000Y-84976190D01*
X75661905Y-85452381D02*
X75661905Y-84452381D01*
X76042858Y-84452381D01*
X76138096Y-84500000D01*
X76185715Y-84547619D01*
X76233334Y-84642857D01*
X76233334Y-84785714D01*
X76185715Y-84880952D01*
X76138096Y-84928571D01*
X76042858Y-84976190D01*
X75661905Y-84976190D01*
X77138096Y-84452381D02*
X76661905Y-84452381D01*
X76614286Y-84928571D01*
X76661905Y-84880952D01*
X76757143Y-84833333D01*
X76995239Y-84833333D01*
X77090477Y-84880952D01*
X77138096Y-84928571D01*
X77185715Y-85023810D01*
X77185715Y-85261905D01*
X77138096Y-85357143D01*
X77090477Y-85404762D01*
X76995239Y-85452381D01*
X76757143Y-85452381D01*
X76661905Y-85404762D01*
X76614286Y-85357143D01*
X64333334Y-90952381D02*
X64000000Y-90476190D01*
X63761905Y-90952381D02*
X63761905Y-89952381D01*
X64142858Y-89952381D01*
X64238096Y-90000000D01*
X64285715Y-90047619D01*
X64333334Y-90142857D01*
X64333334Y-90285714D01*
X64285715Y-90380952D01*
X64238096Y-90428571D01*
X64142858Y-90476190D01*
X63761905Y-90476190D01*
X64904762Y-90380952D02*
X64809524Y-90333333D01*
X64761905Y-90285714D01*
X64714286Y-90190476D01*
X64714286Y-90142857D01*
X64761905Y-90047619D01*
X64809524Y-90000000D01*
X64904762Y-89952381D01*
X65095239Y-89952381D01*
X65190477Y-90000000D01*
X65238096Y-90047619D01*
X65285715Y-90142857D01*
X65285715Y-90190476D01*
X65238096Y-90285714D01*
X65190477Y-90333333D01*
X65095239Y-90380952D01*
X64904762Y-90380952D01*
X64809524Y-90428571D01*
X64761905Y-90476190D01*
X64714286Y-90571429D01*
X64714286Y-90761905D01*
X64761905Y-90857143D01*
X64809524Y-90904762D01*
X64904762Y-90952381D01*
X65095239Y-90952381D01*
X65190477Y-90904762D01*
X65238096Y-90857143D01*
X65285715Y-90761905D01*
X65285715Y-90571429D01*
X65238096Y-90476190D01*
X65190477Y-90428571D01*
X65095239Y-90380952D01*
X64333334Y-88452381D02*
X64000000Y-87976190D01*
X63761905Y-88452381D02*
X63761905Y-87452381D01*
X64142858Y-87452381D01*
X64238096Y-87500000D01*
X64285715Y-87547619D01*
X64333334Y-87642857D01*
X64333334Y-87785714D01*
X64285715Y-87880952D01*
X64238096Y-87928571D01*
X64142858Y-87976190D01*
X63761905Y-87976190D01*
X64809524Y-88452381D02*
X65000000Y-88452381D01*
X65095239Y-88404762D01*
X65142858Y-88357143D01*
X65238096Y-88214286D01*
X65285715Y-88023810D01*
X65285715Y-87642857D01*
X65238096Y-87547619D01*
X65190477Y-87500000D01*
X65095239Y-87452381D01*
X64904762Y-87452381D01*
X64809524Y-87500000D01*
X64761905Y-87547619D01*
X64714286Y-87642857D01*
X64714286Y-87880952D01*
X64761905Y-87976190D01*
X64809524Y-88023810D01*
X64904762Y-88071429D01*
X65095239Y-88071429D01*
X65190477Y-88023810D01*
X65238096Y-87976190D01*
X65285715Y-87880952D01*
X55485714Y-70942857D02*
X55485714Y-71914286D01*
X55542857Y-72028571D01*
X55600000Y-72085714D01*
X55714286Y-72142857D01*
X55942857Y-72142857D01*
X56057143Y-72085714D01*
X56114286Y-72028571D01*
X56171429Y-71914286D01*
X56171429Y-70942857D01*
X57371429Y-72142857D02*
X56685714Y-72142857D01*
X57028572Y-72142857D02*
X57028572Y-70942857D01*
X56914286Y-71114286D01*
X56800000Y-71228571D01*
X56685714Y-71285714D01*
X50695238Y-67252381D02*
X50933333Y-68252381D01*
X51123810Y-67538095D01*
X51314286Y-68252381D01*
X51552381Y-67252381D01*
X52457143Y-68252381D02*
X51885714Y-68252381D01*
X52171428Y-68252381D02*
X52171428Y-67252381D01*
X52076190Y-67395238D01*
X51980952Y-67490476D01*
X51885714Y-67538095D01*
X52095238Y-73052381D02*
X52333333Y-74052381D01*
X52523810Y-73338095D01*
X52714286Y-74052381D01*
X52952381Y-73052381D01*
X53285714Y-73147619D02*
X53333333Y-73100000D01*
X53428571Y-73052381D01*
X53666667Y-73052381D01*
X53761905Y-73100000D01*
X53809524Y-73147619D01*
X53857143Y-73242857D01*
X53857143Y-73338095D01*
X53809524Y-73480952D01*
X53238095Y-74052381D01*
X53857143Y-74052381D01*
X96357143Y-91757143D02*
X96309524Y-91804762D01*
X96166667Y-91852381D01*
X96071429Y-91852381D01*
X95928571Y-91804762D01*
X95833333Y-91709524D01*
X95785714Y-91614286D01*
X95738095Y-91423810D01*
X95738095Y-91280952D01*
X95785714Y-91090476D01*
X95833333Y-90995238D01*
X95928571Y-90900000D01*
X96071429Y-90852381D01*
X96166667Y-90852381D01*
X96309524Y-90900000D01*
X96357143Y-90947619D01*
X97309524Y-91852381D02*
X96738095Y-91852381D01*
X97023809Y-91852381D02*
X97023809Y-90852381D01*
X96928571Y-90995238D01*
X96833333Y-91090476D01*
X96738095Y-91138095D01*
X97642857Y-90852381D02*
X98261905Y-90852381D01*
X97928571Y-91233333D01*
X98071429Y-91233333D01*
X98166667Y-91280952D01*
X98214286Y-91328571D01*
X98261905Y-91423810D01*
X98261905Y-91661905D01*
X98214286Y-91757143D01*
X98166667Y-91804762D01*
X98071429Y-91852381D01*
X97785714Y-91852381D01*
X97690476Y-91804762D01*
X97642857Y-91757143D01*
M02*
