M48
;DRILL file {KiCad 0.201602020917+6532~42~ubuntu15.04.1-product} date Fri 12 Feb 2016 04:20:08 PM EST
;FORMAT={3:3/ absolute / metric / keep zeros}
FMAT,2
METRIC,TZ
T1C0.650
T2C1.016
T3C1.300
T4C3.200
%
G90
G05
M71
T1
X041728Y-080618
X043834Y-080576
X046664Y-080659
X048750Y-080577
X060800Y-074400
X060800Y-077200
X061635Y-075800
X062400Y-074400
X062400Y-077200
X069400Y-065800
X069400Y-068400
X069400Y-070800
X069400Y-073200
X071400Y-065800
X071400Y-068400
X071400Y-070800
X071400Y-073200
X073600Y-065800
X073600Y-068400
X073600Y-070800
X073600Y-073200
X075000Y-081200
X075000Y-083000
X076000Y-065800
X076000Y-068400
X076000Y-070800
X076000Y-073200
X078000Y-065800
X078000Y-068400
X078000Y-070800
X078000Y-073200
X085600Y-089200
X085800Y-080600
X087000Y-089200
X087200Y-080600
X088600Y-066000
X088600Y-067800
X088600Y-069600
X088600Y-071600
X088600Y-073600
X090200Y-077200
X090200Y-085200
X091600Y-077200
X091800Y-085200
X096000Y-085200
X096312Y-076496
X097746Y-076467
X097800Y-085200
T2
X051600Y-064800
X052800Y-076600
T3
X035600Y-075400
X035600Y-080400
X105200Y-075400
X105200Y-080400
T4
X035600Y-065800
X035600Y-089800
X105200Y-065800
X105200Y-089800
T0
M30
