G04 #@! TF.FileFunction,Legend,Bot*
%FSLAX46Y46*%
G04 Gerber Fmt 4.6, Leading zero omitted, Abs format (unit mm)*
G04 Created by KiCad (PCBNEW 0.201602271447+6593~42~ubuntu15.04.1-product) date Mon 29 Feb 2016 02:23:36 PM EST*
%MOMM*%
G01*
G04 APERTURE LIST*
%ADD10C,0.100000*%
%ADD11C,0.180000*%
%ADD12C,0.200000*%
%ADD13C,0.150000*%
G04 APERTURE END LIST*
D10*
D11*
X114085714Y-79350000D02*
X114171428Y-79307143D01*
X114299999Y-79307143D01*
X114428571Y-79350000D01*
X114514285Y-79435714D01*
X114557142Y-79521429D01*
X114599999Y-79692857D01*
X114599999Y-79821429D01*
X114557142Y-79992857D01*
X114514285Y-80078571D01*
X114428571Y-80164286D01*
X114299999Y-80207143D01*
X114214285Y-80207143D01*
X114085714Y-80164286D01*
X114042857Y-80121429D01*
X114042857Y-79821429D01*
X114214285Y-79821429D01*
X113657142Y-80207143D02*
X113657142Y-79307143D01*
X113142857Y-80207143D01*
X113142857Y-79307143D01*
X112714285Y-80207143D02*
X112714285Y-79307143D01*
X112500000Y-79307143D01*
X112371428Y-79350000D01*
X112285714Y-79435714D01*
X112242857Y-79521429D01*
X112200000Y-79692857D01*
X112200000Y-79821429D01*
X112242857Y-79992857D01*
X112285714Y-80078571D01*
X112371428Y-80164286D01*
X112500000Y-80207143D01*
X112714285Y-80207143D01*
D12*
X109961904Y-56700000D02*
X110057142Y-56652381D01*
X110199999Y-56652381D01*
X110342857Y-56700000D01*
X110438095Y-56795238D01*
X110485714Y-56890476D01*
X110533333Y-57080952D01*
X110533333Y-57223810D01*
X110485714Y-57414286D01*
X110438095Y-57509524D01*
X110342857Y-57604762D01*
X110199999Y-57652381D01*
X110104761Y-57652381D01*
X109961904Y-57604762D01*
X109914285Y-57557143D01*
X109914285Y-57223810D01*
X110104761Y-57223810D01*
X109485714Y-57652381D02*
X109485714Y-56652381D01*
X108914285Y-57652381D01*
X108914285Y-56652381D01*
X108438095Y-57652381D02*
X108438095Y-56652381D01*
X108200000Y-56652381D01*
X108057142Y-56700000D01*
X107961904Y-56795238D01*
X107914285Y-56890476D01*
X107866666Y-57080952D01*
X107866666Y-57223810D01*
X107914285Y-57414286D01*
X107961904Y-57509524D01*
X108057142Y-57604762D01*
X108200000Y-57652381D01*
X108438095Y-57652381D01*
D10*
X102600000Y-86400000D02*
X102600000Y-49200000D01*
X115600000Y-86400000D02*
X102600000Y-86400000D01*
X115600000Y-49200000D02*
X115600000Y-86400000D01*
X102600000Y-49200000D02*
X115600000Y-49200000D01*
D13*
X111676000Y-76797000D02*
X114851000Y-76797000D01*
X114851000Y-76797000D02*
X114851000Y-78575000D01*
X114851000Y-78575000D02*
X111676000Y-78575000D01*
X111676000Y-72225000D02*
X114851000Y-72225000D01*
X114851000Y-72225000D02*
X114851000Y-74003000D01*
X114851000Y-74003000D02*
X111676000Y-74003000D01*
X105580000Y-78829000D02*
X111676000Y-78829000D01*
X111676000Y-78829000D02*
X111676000Y-71971000D01*
X111676000Y-71971000D02*
X103802000Y-71971000D01*
X103675000Y-71971000D02*
X103675000Y-78829000D01*
X103802000Y-78829000D02*
X105580000Y-78829000D01*
X115180000Y-56320000D02*
X103090000Y-56320000D01*
X115180000Y-71320000D02*
X115180000Y-56320000D01*
X103090000Y-71320000D02*
X103090000Y-56320000D01*
X103090000Y-71320000D02*
X115180000Y-71320000D01*
X106729640Y-61419460D02*
X107290980Y-61160380D01*
X107290980Y-61160380D02*
X107809140Y-61698860D01*
X107809140Y-61698860D02*
X107539900Y-62219560D01*
X107539900Y-62219560D02*
X107699920Y-62498960D01*
X107679600Y-63939140D02*
X107489100Y-64269340D01*
X107489100Y-64269340D02*
X107819300Y-64708760D01*
X107819300Y-64708760D02*
X107329080Y-65181200D01*
X107329080Y-65181200D02*
X106849020Y-64899260D01*
X106849020Y-64899260D02*
X106379120Y-65089760D01*
X106379120Y-65089760D02*
X106191160Y-65699360D01*
X106191160Y-65699360D02*
X105510440Y-65699360D01*
X105510440Y-65699360D02*
X105370740Y-65140560D01*
X105370740Y-65140560D02*
X104799240Y-64939900D01*
X104799240Y-64939900D02*
X104329340Y-65209140D01*
X104329340Y-65209140D02*
X103818800Y-64739240D01*
X103818800Y-64739240D02*
X104080420Y-64221080D01*
X104080420Y-64221080D02*
X103879760Y-63751180D01*
X103879760Y-63751180D02*
X103338740Y-63581000D01*
X103338740Y-63581000D02*
X103320960Y-62890120D01*
X103320960Y-62890120D02*
X103869600Y-62679300D01*
X103869600Y-62679300D02*
X104039780Y-62260200D01*
X104039780Y-62260200D02*
X103770540Y-61709020D01*
X103770540Y-61709020D02*
X104298860Y-61190860D01*
X104298860Y-61190860D02*
X104839880Y-61439780D01*
X104839880Y-61439780D02*
X105319940Y-61269600D01*
X105319940Y-61269600D02*
X105419000Y-60720960D01*
X105419000Y-60720960D02*
X106120040Y-60710800D01*
X106120040Y-60710800D02*
X106320700Y-61269600D01*
X106320700Y-61269600D02*
X106719480Y-61409300D01*
X106699160Y-63550520D02*
X106549300Y-63850240D01*
X106549300Y-63850240D02*
X106351180Y-64050900D01*
X106351180Y-64050900D02*
X105949860Y-64200760D01*
X105949860Y-64200760D02*
X105551080Y-64200760D01*
X105551080Y-64200760D02*
X105200560Y-64050900D01*
X105200560Y-64050900D02*
X104850040Y-63598780D01*
X104850040Y-63598780D02*
X104799240Y-63149200D01*
X104799240Y-63149200D02*
X104900840Y-62750420D01*
X104900840Y-62750420D02*
X105248820Y-62349100D01*
X105248820Y-62349100D02*
X105700940Y-62199240D01*
X105700940Y-62199240D02*
X106198780Y-62250040D01*
X106198780Y-62250040D02*
X106501040Y-62498960D01*
X106501040Y-62498960D02*
X106699160Y-62849480D01*
X106699160Y-62849480D02*
X107699920Y-62498960D01*
X106699160Y-63550520D02*
X107699920Y-63949300D01*
X112652381Y-74638095D02*
X113461905Y-74638095D01*
X113557143Y-74685714D01*
X113604762Y-74733333D01*
X113652381Y-74828571D01*
X113652381Y-75019048D01*
X113604762Y-75114286D01*
X113557143Y-75161905D01*
X113461905Y-75209524D01*
X112652381Y-75209524D01*
X113652381Y-76209524D02*
X113652381Y-75638095D01*
X113652381Y-75923809D02*
X112652381Y-75923809D01*
X112795238Y-75828571D01*
X112890476Y-75733333D01*
X112938095Y-75638095D01*
X109333333Y-70128571D02*
X109666667Y-70128571D01*
X109666667Y-70652381D02*
X109666667Y-69652381D01*
X109190476Y-69652381D01*
X108285714Y-70652381D02*
X108857143Y-70652381D01*
X108571429Y-70652381D02*
X108571429Y-69652381D01*
X108666667Y-69795238D01*
X108761905Y-69890476D01*
X108857143Y-69938095D01*
M02*
