G04 #@! TF.FileFunction,Copper,L1,Top,Signal*
%FSLAX46Y46*%
G04 Gerber Fmt 4.6, Leading zero omitted, Abs format (unit mm)*
G04 Created by KiCad (PCBNEW 0.201602271447+6593~42~ubuntu15.04.1-product) date Mon 29 Feb 2016 02:23:36 PM EST*
%MOMM*%
G01*
G04 APERTURE LIST*
%ADD10C,0.100000*%
%ADD11R,2.000000X1.900000*%
%ADD12C,1.900000*%
%ADD13R,0.800100X1.800860*%
%ADD14R,1.300000X1.500000*%
%ADD15R,1.500000X1.300000*%
%ADD16R,10.000000X5.000000*%
%ADD17C,2.930000*%
%ADD18C,2.170000*%
%ADD19C,0.600000*%
%ADD20C,0.750000*%
%ADD21C,1.000000*%
%ADD22C,2.000000*%
G04 APERTURE END LIST*
D10*
X102600000Y-86400000D02*
X102600000Y-49200000D01*
X115600000Y-86400000D02*
X102600000Y-86400000D01*
X115600000Y-49200000D02*
X115600000Y-86400000D01*
X102600000Y-49200000D02*
X115600000Y-49200000D01*
D11*
X109400000Y-65340000D03*
D12*
X109400000Y-62800000D03*
D13*
X108395891Y-76119947D03*
X110295891Y-76119947D03*
X109345891Y-73117667D03*
D14*
X112200000Y-73268807D03*
X112200000Y-75968807D03*
D15*
X107995891Y-78418807D03*
X110695891Y-78418807D03*
D14*
X106545891Y-73268807D03*
X106545891Y-75968807D03*
X114000000Y-64550000D03*
X114000000Y-61850000D03*
D16*
X109200000Y-52800000D03*
X109200000Y-83000000D03*
D17*
X105070000Y-68400000D03*
D18*
X113200000Y-58240000D03*
D17*
X113200000Y-68400000D03*
D18*
X105070000Y-58240000D03*
D19*
X108000000Y-79600000D03*
X110400000Y-73000000D03*
X114400000Y-75400000D03*
D20*
X107995891Y-78418807D02*
X107995891Y-79595891D01*
X107995891Y-79595891D02*
X108000000Y-79600000D01*
X109345891Y-73117667D02*
X110282333Y-73117667D01*
X110282333Y-73117667D02*
X110400000Y-73000000D01*
D21*
X110295891Y-76119947D02*
X110295891Y-78018807D01*
X110295891Y-78018807D02*
X110695891Y-78418807D01*
X111945891Y-75968807D02*
X110447031Y-75968807D01*
X110447031Y-75968807D02*
X110295891Y-76119947D01*
X109400000Y-62800000D02*
X113050000Y-62800000D01*
X113050000Y-62800000D02*
X114000000Y-61850000D01*
D22*
X104695890Y-80795890D02*
X104695890Y-74316724D01*
X106900000Y-83000000D02*
X104695890Y-80795890D01*
X109400000Y-83000000D02*
X106900000Y-83000000D01*
X104695890Y-74316724D02*
X106545891Y-72466723D01*
X106545891Y-72457185D02*
X110603076Y-68400000D01*
X110603076Y-68400000D02*
X111128178Y-68400000D01*
D21*
X113200000Y-72260435D02*
X112211034Y-73249401D01*
X113200000Y-68400000D02*
X113200000Y-72260435D01*
D22*
X106545891Y-72466723D02*
X106545891Y-73268807D01*
X106545891Y-73268807D02*
X106545891Y-72457185D01*
X111128178Y-68400000D02*
X113200000Y-68400000D01*
D21*
X113200000Y-68400000D02*
X113200000Y-65350000D01*
X113200000Y-65350000D02*
X114000000Y-64550000D01*
D20*
X113643806Y-74643806D02*
X114400000Y-75400000D01*
X108395891Y-76119947D02*
X108395891Y-75684465D01*
X108395891Y-75684465D02*
X109436550Y-74643806D01*
X109436550Y-74643806D02*
X113643806Y-74643806D01*
D21*
X108395891Y-76119947D02*
X106697031Y-76119947D01*
X106697031Y-76119947D02*
X106545891Y-75968807D01*
D22*
X105070000Y-68400000D02*
X105070000Y-58240000D01*
X105070000Y-58240000D02*
X105070000Y-57330000D01*
X105070000Y-57330000D02*
X109400000Y-53000000D01*
M02*
