G04 #@! TF.FileFunction,Copper,L2,Bot,Signal*
%FSLAX46Y46*%
G04 Gerber Fmt 4.6, Leading zero omitted, Abs format (unit mm)*
G04 Created by KiCad (PCBNEW 0.201602271447+6593~42~ubuntu15.04.1-product) date Mon 29 Feb 2016 02:23:36 PM EST*
%MOMM*%
G01*
G04 APERTURE LIST*
%ADD10C,0.100000*%
%ADD11R,2.000000X1.900000*%
%ADD12C,1.900000*%
%ADD13R,3.048000X1.651000*%
%ADD14R,6.096000X6.096000*%
%ADD15R,10.000000X5.000000*%
%ADD16C,2.930000*%
%ADD17C,2.170000*%
%ADD18C,0.600000*%
%ADD19C,0.750000*%
%ADD20C,2.000000*%
%ADD21C,0.254000*%
G04 APERTURE END LIST*
D10*
X102600000Y-86400000D02*
X102600000Y-49200000D01*
X115600000Y-86400000D02*
X102600000Y-86400000D01*
X115600000Y-49200000D02*
X115600000Y-86400000D01*
X102600000Y-49200000D02*
X115600000Y-49200000D01*
D11*
X109400000Y-65340000D03*
D12*
X109400000Y-62800000D03*
D13*
X113200000Y-73114000D03*
D14*
X106850000Y-75400000D03*
D13*
X113200000Y-77686000D03*
D15*
X109200000Y-83000000D03*
X109200000Y-52800000D03*
D16*
X105070000Y-68400000D03*
D17*
X113200000Y-58240000D03*
D16*
X113200000Y-68400000D03*
D17*
X105070000Y-58240000D03*
D18*
X108000000Y-79600000D03*
X110400000Y-73000000D03*
X114400000Y-75400000D03*
D19*
X108000000Y-79600000D02*
X108000000Y-76550000D01*
X108000000Y-76550000D02*
X106850000Y-75400000D01*
X106850000Y-75400000D02*
X108000000Y-75400000D01*
X108000000Y-75400000D02*
X110400000Y-73000000D01*
D20*
X113200000Y-73114000D02*
X113200000Y-68400000D01*
X113200000Y-68400000D02*
X113200000Y-58240000D01*
D19*
X114400000Y-75400000D02*
X114400000Y-76486000D01*
X114400000Y-76486000D02*
X113200000Y-77686000D01*
D21*
G36*
X114915000Y-57886550D02*
X114658995Y-57266971D01*
X114175574Y-56782705D01*
X113543630Y-56520299D01*
X112859372Y-56519702D01*
X112226971Y-56781005D01*
X111742705Y-57264426D01*
X111480299Y-57896370D01*
X111479702Y-58580628D01*
X111565000Y-58787065D01*
X111565000Y-67064890D01*
X111420745Y-67208893D01*
X111100366Y-67980452D01*
X111099637Y-68815883D01*
X111418669Y-69588000D01*
X111565000Y-69734587D01*
X111565000Y-71663139D01*
X111428235Y-71690343D01*
X111218191Y-71830691D01*
X111077843Y-72040735D01*
X111028560Y-72288500D01*
X111028560Y-73939500D01*
X111077843Y-74187265D01*
X111218191Y-74397309D01*
X111428235Y-74537657D01*
X111676000Y-74586940D01*
X112518036Y-74586940D01*
X112574313Y-74624543D01*
X113200000Y-74749000D01*
X113757121Y-74638182D01*
X113685822Y-74685822D01*
X113466882Y-75013490D01*
X113390000Y-75400000D01*
X113390000Y-76067644D01*
X113244584Y-76213060D01*
X111676000Y-76213060D01*
X111428235Y-76262343D01*
X111218191Y-76402691D01*
X111077843Y-76612735D01*
X111028560Y-76860500D01*
X111028560Y-78511500D01*
X111077843Y-78759265D01*
X111218191Y-78969309D01*
X111428235Y-79109657D01*
X111676000Y-79158940D01*
X114724000Y-79158940D01*
X114915000Y-79120948D01*
X114915000Y-85715000D01*
X103285000Y-85715000D01*
X103285000Y-69579120D01*
X103288669Y-69588000D01*
X103878893Y-70179255D01*
X104650452Y-70499634D01*
X105485883Y-70500363D01*
X106258000Y-70181331D01*
X106849255Y-69591107D01*
X107169634Y-68819548D01*
X107170363Y-67984117D01*
X106851331Y-67212000D01*
X106261107Y-66620745D01*
X105489548Y-66300366D01*
X104654117Y-66299637D01*
X103882000Y-66618669D01*
X103290745Y-67208893D01*
X103285000Y-67222729D01*
X103285000Y-63113893D01*
X107814725Y-63113893D01*
X108055519Y-63696657D01*
X108500997Y-64142914D01*
X109083341Y-64384724D01*
X109713893Y-64385275D01*
X110296657Y-64144481D01*
X110742914Y-63699003D01*
X110984724Y-63116659D01*
X110985275Y-62486107D01*
X110744481Y-61903343D01*
X110299003Y-61457086D01*
X109716659Y-61215276D01*
X109086107Y-61214725D01*
X108503343Y-61455519D01*
X108057086Y-61900997D01*
X107815276Y-62483341D01*
X107814725Y-63113893D01*
X103285000Y-63113893D01*
X103285000Y-58580628D01*
X103349702Y-58580628D01*
X103611005Y-59213029D01*
X104094426Y-59697295D01*
X104726370Y-59959701D01*
X105410628Y-59960298D01*
X106043029Y-59698995D01*
X106527295Y-59215574D01*
X106789701Y-58583630D01*
X106790298Y-57899372D01*
X106528995Y-57266971D01*
X106045574Y-56782705D01*
X105413630Y-56520299D01*
X104729372Y-56519702D01*
X104096971Y-56781005D01*
X103612705Y-57264426D01*
X103350299Y-57896370D01*
X103349702Y-58580628D01*
X103285000Y-58580628D01*
X103285000Y-49885000D01*
X114915000Y-49885000D01*
X114915000Y-57886550D01*
X114915000Y-57886550D01*
G37*
X114915000Y-57886550D02*
X114658995Y-57266971D01*
X114175574Y-56782705D01*
X113543630Y-56520299D01*
X112859372Y-56519702D01*
X112226971Y-56781005D01*
X111742705Y-57264426D01*
X111480299Y-57896370D01*
X111479702Y-58580628D01*
X111565000Y-58787065D01*
X111565000Y-67064890D01*
X111420745Y-67208893D01*
X111100366Y-67980452D01*
X111099637Y-68815883D01*
X111418669Y-69588000D01*
X111565000Y-69734587D01*
X111565000Y-71663139D01*
X111428235Y-71690343D01*
X111218191Y-71830691D01*
X111077843Y-72040735D01*
X111028560Y-72288500D01*
X111028560Y-73939500D01*
X111077843Y-74187265D01*
X111218191Y-74397309D01*
X111428235Y-74537657D01*
X111676000Y-74586940D01*
X112518036Y-74586940D01*
X112574313Y-74624543D01*
X113200000Y-74749000D01*
X113757121Y-74638182D01*
X113685822Y-74685822D01*
X113466882Y-75013490D01*
X113390000Y-75400000D01*
X113390000Y-76067644D01*
X113244584Y-76213060D01*
X111676000Y-76213060D01*
X111428235Y-76262343D01*
X111218191Y-76402691D01*
X111077843Y-76612735D01*
X111028560Y-76860500D01*
X111028560Y-78511500D01*
X111077843Y-78759265D01*
X111218191Y-78969309D01*
X111428235Y-79109657D01*
X111676000Y-79158940D01*
X114724000Y-79158940D01*
X114915000Y-79120948D01*
X114915000Y-85715000D01*
X103285000Y-85715000D01*
X103285000Y-69579120D01*
X103288669Y-69588000D01*
X103878893Y-70179255D01*
X104650452Y-70499634D01*
X105485883Y-70500363D01*
X106258000Y-70181331D01*
X106849255Y-69591107D01*
X107169634Y-68819548D01*
X107170363Y-67984117D01*
X106851331Y-67212000D01*
X106261107Y-66620745D01*
X105489548Y-66300366D01*
X104654117Y-66299637D01*
X103882000Y-66618669D01*
X103290745Y-67208893D01*
X103285000Y-67222729D01*
X103285000Y-63113893D01*
X107814725Y-63113893D01*
X108055519Y-63696657D01*
X108500997Y-64142914D01*
X109083341Y-64384724D01*
X109713893Y-64385275D01*
X110296657Y-64144481D01*
X110742914Y-63699003D01*
X110984724Y-63116659D01*
X110985275Y-62486107D01*
X110744481Y-61903343D01*
X110299003Y-61457086D01*
X109716659Y-61215276D01*
X109086107Y-61214725D01*
X108503343Y-61455519D01*
X108057086Y-61900997D01*
X107815276Y-62483341D01*
X107814725Y-63113893D01*
X103285000Y-63113893D01*
X103285000Y-58580628D01*
X103349702Y-58580628D01*
X103611005Y-59213029D01*
X104094426Y-59697295D01*
X104726370Y-59959701D01*
X105410628Y-59960298D01*
X106043029Y-59698995D01*
X106527295Y-59215574D01*
X106789701Y-58583630D01*
X106790298Y-57899372D01*
X106528995Y-57266971D01*
X106045574Y-56782705D01*
X105413630Y-56520299D01*
X104729372Y-56519702D01*
X104096971Y-56781005D01*
X103612705Y-57264426D01*
X103350299Y-57896370D01*
X103349702Y-58580628D01*
X103285000Y-58580628D01*
X103285000Y-49885000D01*
X114915000Y-49885000D01*
X114915000Y-57886550D01*
M02*
