G04 #@! TF.FileFunction,Legend,Top*
%FSLAX46Y46*%
G04 Gerber Fmt 4.6, Leading zero omitted, Abs format (unit mm)*
G04 Created by KiCad (PCBNEW 0.201602231446+6579~42~ubuntu15.04.1-product) date Fri 26 Feb 2016 04:43:04 PM EST*
%MOMM*%
G01*
G04 APERTURE LIST*
%ADD10C,0.100000*%
%ADD11C,0.200000*%
%ADD12C,0.150000*%
G04 APERTURE END LIST*
D10*
D11*
X105800000Y-59800000D02*
X103400000Y-59800000D01*
X105800000Y-66600000D02*
X105800000Y-59800000D01*
X103400000Y-66600000D02*
X105800000Y-66600000D01*
X103400000Y-59800000D02*
X103400000Y-66600000D01*
D10*
X104292857Y-65575000D02*
X104328571Y-65610714D01*
X104364286Y-65717857D01*
X104364286Y-65789286D01*
X104328571Y-65896429D01*
X104257143Y-65967857D01*
X104185714Y-66003572D01*
X104042857Y-66039286D01*
X103935714Y-66039286D01*
X103792857Y-66003572D01*
X103721429Y-65967857D01*
X103650000Y-65896429D01*
X103614286Y-65789286D01*
X103614286Y-65717857D01*
X103650000Y-65610714D01*
X103685714Y-65575000D01*
X104078571Y-65253572D02*
X104078571Y-64682143D01*
X103971429Y-64075001D02*
X104007143Y-63967858D01*
X104042857Y-63932143D01*
X104114286Y-63896429D01*
X104221429Y-63896429D01*
X104292857Y-63932143D01*
X104328571Y-63967858D01*
X104364286Y-64039286D01*
X104364286Y-64325001D01*
X103614286Y-64325001D01*
X103614286Y-64075001D01*
X103650000Y-64003572D01*
X103685714Y-63967858D01*
X103757143Y-63932143D01*
X103828571Y-63932143D01*
X103900000Y-63967858D01*
X103935714Y-64003572D01*
X103971429Y-64075001D01*
X103971429Y-64325001D01*
X104364286Y-63575001D02*
X103614286Y-63575001D01*
X104328571Y-63253572D02*
X104364286Y-63146429D01*
X104364286Y-62967858D01*
X104328571Y-62896429D01*
X104292857Y-62860715D01*
X104221429Y-62825000D01*
X104150000Y-62825000D01*
X104078571Y-62860715D01*
X104042857Y-62896429D01*
X104007143Y-62967858D01*
X103971429Y-63110715D01*
X103935714Y-63182143D01*
X103900000Y-63217858D01*
X103828571Y-63253572D01*
X103757143Y-63253572D01*
X103685714Y-63217858D01*
X103650000Y-63182143D01*
X103614286Y-63110715D01*
X103614286Y-62932143D01*
X103650000Y-62825000D01*
X104292857Y-62075000D02*
X104328571Y-62110714D01*
X104364286Y-62217857D01*
X104364286Y-62289286D01*
X104328571Y-62396429D01*
X104257143Y-62467857D01*
X104185714Y-62503572D01*
X104042857Y-62539286D01*
X103935714Y-62539286D01*
X103792857Y-62503572D01*
X103721429Y-62467857D01*
X103650000Y-62396429D01*
X103614286Y-62289286D01*
X103614286Y-62217857D01*
X103650000Y-62110714D01*
X103685714Y-62075000D01*
X103614286Y-61753572D02*
X104221429Y-61753572D01*
X104292857Y-61717857D01*
X104328571Y-61682143D01*
X104364286Y-61610714D01*
X104364286Y-61467857D01*
X104328571Y-61396429D01*
X104292857Y-61360714D01*
X104221429Y-61325000D01*
X103614286Y-61325000D01*
X104364286Y-60967858D02*
X103614286Y-60967858D01*
X103614286Y-60717857D02*
X103614286Y-60289286D01*
X104364286Y-60503572D02*
X103614286Y-60503572D01*
X104764286Y-65878571D02*
X104764286Y-66235714D01*
X105121429Y-66271428D01*
X105085714Y-66235714D01*
X105050000Y-66164285D01*
X105050000Y-65985714D01*
X105085714Y-65914285D01*
X105121429Y-65878571D01*
X105192857Y-65842856D01*
X105371429Y-65842856D01*
X105442857Y-65878571D01*
X105478571Y-65914285D01*
X105514286Y-65985714D01*
X105514286Y-66164285D01*
X105478571Y-66235714D01*
X105442857Y-66271428D01*
X104764286Y-65628570D02*
X105514286Y-65378570D01*
X104764286Y-65128570D01*
X105442857Y-63878570D02*
X105478571Y-63914284D01*
X105514286Y-64021427D01*
X105514286Y-64092856D01*
X105478571Y-64199999D01*
X105407143Y-64271427D01*
X105335714Y-64307142D01*
X105192857Y-64342856D01*
X105085714Y-64342856D01*
X104942857Y-64307142D01*
X104871429Y-64271427D01*
X104800000Y-64199999D01*
X104764286Y-64092856D01*
X104764286Y-64021427D01*
X104800000Y-63914284D01*
X104835714Y-63878570D01*
X105514286Y-63557142D02*
X105014286Y-63557142D01*
X105157143Y-63557142D02*
X105085714Y-63521427D01*
X105050000Y-63485713D01*
X105014286Y-63414284D01*
X105014286Y-63342856D01*
X105514286Y-62985713D02*
X105478571Y-63057141D01*
X105442857Y-63092856D01*
X105371429Y-63128570D01*
X105157143Y-63128570D01*
X105085714Y-63092856D01*
X105050000Y-63057141D01*
X105014286Y-62985713D01*
X105014286Y-62878570D01*
X105050000Y-62807141D01*
X105085714Y-62771427D01*
X105157143Y-62735713D01*
X105371429Y-62735713D01*
X105442857Y-62771427D01*
X105478571Y-62807141D01*
X105514286Y-62878570D01*
X105514286Y-62985713D01*
X105014286Y-62485713D02*
X105514286Y-62342856D01*
X105157143Y-62199999D01*
X105514286Y-62057142D01*
X105014286Y-61914285D01*
X105514286Y-61628571D02*
X104764286Y-61628571D01*
X105050000Y-61628571D02*
X105014286Y-61557142D01*
X105014286Y-61414285D01*
X105050000Y-61342856D01*
X105085714Y-61307142D01*
X105157143Y-61271428D01*
X105371429Y-61271428D01*
X105442857Y-61307142D01*
X105478571Y-61342856D01*
X105514286Y-61414285D01*
X105514286Y-61557142D01*
X105478571Y-61628571D01*
X105514286Y-60628571D02*
X105121429Y-60628571D01*
X105050000Y-60664285D01*
X105014286Y-60735714D01*
X105014286Y-60878571D01*
X105050000Y-60950000D01*
X105478571Y-60628571D02*
X105514286Y-60700000D01*
X105514286Y-60878571D01*
X105478571Y-60950000D01*
X105407143Y-60985714D01*
X105335714Y-60985714D01*
X105264286Y-60950000D01*
X105228571Y-60878571D01*
X105228571Y-60700000D01*
X105192857Y-60628571D01*
X105514286Y-60271429D02*
X105014286Y-60271429D01*
X105157143Y-60271429D02*
X105085714Y-60235714D01*
X105050000Y-60200000D01*
X105014286Y-60128571D01*
X105014286Y-60057143D01*
D11*
X112257143Y-79852381D02*
X112257143Y-78852381D01*
X112495238Y-78852381D01*
X112638096Y-78900000D01*
X112733334Y-78995238D01*
X112780953Y-79090476D01*
X112828572Y-79280952D01*
X112828572Y-79423810D01*
X112780953Y-79614286D01*
X112733334Y-79709524D01*
X112638096Y-79804762D01*
X112495238Y-79852381D01*
X112257143Y-79852381D01*
X113257143Y-79328571D02*
X113590477Y-79328571D01*
X113733334Y-79852381D02*
X113257143Y-79852381D01*
X113257143Y-78852381D01*
X113733334Y-78852381D01*
X114019048Y-78852381D02*
X114352381Y-79852381D01*
X114685715Y-78852381D01*
X108957143Y-56804762D02*
X109100000Y-56852381D01*
X109338096Y-56852381D01*
X109433334Y-56804762D01*
X109480953Y-56757143D01*
X109528572Y-56661905D01*
X109528572Y-56566667D01*
X109480953Y-56471429D01*
X109433334Y-56423810D01*
X109338096Y-56376190D01*
X109147619Y-56328571D01*
X109052381Y-56280952D01*
X109004762Y-56233333D01*
X108957143Y-56138095D01*
X108957143Y-56042857D01*
X109004762Y-55947619D01*
X109052381Y-55900000D01*
X109147619Y-55852381D01*
X109385715Y-55852381D01*
X109528572Y-55900000D01*
X109957143Y-55852381D02*
X109957143Y-56661905D01*
X110004762Y-56757143D01*
X110052381Y-56804762D01*
X110147619Y-56852381D01*
X110338096Y-56852381D01*
X110433334Y-56804762D01*
X110480953Y-56757143D01*
X110528572Y-56661905D01*
X110528572Y-55852381D01*
X111004762Y-56852381D02*
X111004762Y-55852381D01*
X111385715Y-55852381D01*
X111480953Y-55900000D01*
X111528572Y-55947619D01*
X111576191Y-56042857D01*
X111576191Y-56185714D01*
X111528572Y-56280952D01*
X111480953Y-56328571D01*
X111385715Y-56376190D01*
X111004762Y-56376190D01*
X112004762Y-56852381D02*
X112004762Y-55852381D01*
X112385715Y-55852381D01*
X112480953Y-55900000D01*
X112528572Y-55947619D01*
X112576191Y-56042857D01*
X112576191Y-56185714D01*
X112528572Y-56280952D01*
X112480953Y-56328571D01*
X112385715Y-56376190D01*
X112004762Y-56376190D01*
X113480953Y-56852381D02*
X113004762Y-56852381D01*
X113004762Y-55852381D01*
X114004762Y-56376190D02*
X114004762Y-56852381D01*
X113671429Y-55852381D02*
X114004762Y-56376190D01*
X114338096Y-55852381D01*
D10*
X102600000Y-86400000D02*
X102600000Y-49200000D01*
X115600000Y-86400000D02*
X102600000Y-86400000D01*
X115600000Y-49200000D02*
X115600000Y-86400000D01*
X102600000Y-49200000D02*
X115600000Y-49200000D01*
D12*
X110924904Y-66554888D02*
G75*
G03X107900000Y-66570000I-1524904J2484888D01*
G01*
X110900000Y-66570000D02*
X107900000Y-66570000D01*
X111917936Y-64070000D02*
G75*
G03X111917936Y-64070000I-2517936J0D01*
G01*
X107846071Y-74669607D02*
X107846071Y-73968567D01*
X107846071Y-73968567D02*
X108094991Y-73968567D01*
X110645051Y-73968567D02*
X110845711Y-73968567D01*
X110845711Y-73968567D02*
X110845711Y-74669607D01*
X111325000Y-75218807D02*
X111325000Y-74018807D01*
X113075000Y-74018807D02*
X113075000Y-75218807D01*
X109945891Y-79293807D02*
X108745891Y-79293807D01*
X108745891Y-77543807D02*
X109945891Y-77543807D01*
X105670891Y-75218807D02*
X105670891Y-74018807D01*
X107420891Y-74018807D02*
X107420891Y-75218807D01*
X114875000Y-62600000D02*
X114875000Y-63800000D01*
X113125000Y-63800000D02*
X113125000Y-62600000D01*
X107261905Y-68252381D02*
X107261905Y-67252381D01*
X107500000Y-67252381D01*
X107642858Y-67300000D01*
X107738096Y-67395238D01*
X107785715Y-67490476D01*
X107833334Y-67680952D01*
X107833334Y-67823810D01*
X107785715Y-68014286D01*
X107738096Y-68109524D01*
X107642858Y-68204762D01*
X107500000Y-68252381D01*
X107261905Y-68252381D01*
X108214286Y-67347619D02*
X108261905Y-67300000D01*
X108357143Y-67252381D01*
X108595239Y-67252381D01*
X108690477Y-67300000D01*
X108738096Y-67347619D01*
X108785715Y-67442857D01*
X108785715Y-67538095D01*
X108738096Y-67680952D01*
X108166667Y-68252381D01*
X108785715Y-68252381D01*
X111757381Y-67506905D02*
X110757381Y-67506905D01*
X111757381Y-66935476D02*
X111185952Y-67364048D01*
X110757381Y-66935476D02*
X111328810Y-67506905D01*
X108607796Y-71261188D02*
X108607796Y-70261188D01*
X108845891Y-70261188D01*
X108988749Y-70308807D01*
X109083987Y-70404045D01*
X109131606Y-70499283D01*
X109179225Y-70689759D01*
X109179225Y-70832617D01*
X109131606Y-71023093D01*
X109083987Y-71118331D01*
X108988749Y-71213569D01*
X108845891Y-71261188D01*
X108607796Y-71261188D01*
X110131606Y-71261188D02*
X109560177Y-71261188D01*
X109845891Y-71261188D02*
X109845891Y-70261188D01*
X109750653Y-70404045D01*
X109655415Y-70499283D01*
X109560177Y-70546902D01*
X114506490Y-74166666D02*
X114030299Y-74500000D01*
X114506490Y-74738095D02*
X113506490Y-74738095D01*
X113506490Y-74357142D01*
X113554109Y-74261904D01*
X113601728Y-74214285D01*
X113696966Y-74166666D01*
X113839823Y-74166666D01*
X113935061Y-74214285D01*
X113982680Y-74261904D01*
X114030299Y-74357142D01*
X114030299Y-74738095D01*
X114506490Y-73214285D02*
X114506490Y-73785714D01*
X114506490Y-73500000D02*
X113506490Y-73500000D01*
X113649347Y-73595238D01*
X113744585Y-73690476D01*
X113792204Y-73785714D01*
X105633334Y-79052381D02*
X105300000Y-78576190D01*
X105061905Y-79052381D02*
X105061905Y-78052381D01*
X105442858Y-78052381D01*
X105538096Y-78100000D01*
X105585715Y-78147619D01*
X105633334Y-78242857D01*
X105633334Y-78385714D01*
X105585715Y-78480952D01*
X105538096Y-78528571D01*
X105442858Y-78576190D01*
X105061905Y-78576190D01*
X106014286Y-78147619D02*
X106061905Y-78100000D01*
X106157143Y-78052381D01*
X106395239Y-78052381D01*
X106490477Y-78100000D01*
X106538096Y-78147619D01*
X106585715Y-78242857D01*
X106585715Y-78338095D01*
X106538096Y-78480952D01*
X105966667Y-79052381D01*
X106585715Y-79052381D01*
X105252381Y-74766666D02*
X104776190Y-75100000D01*
X105252381Y-75338095D02*
X104252381Y-75338095D01*
X104252381Y-74957142D01*
X104300000Y-74861904D01*
X104347619Y-74814285D01*
X104442857Y-74766666D01*
X104585714Y-74766666D01*
X104680952Y-74814285D01*
X104728571Y-74861904D01*
X104776190Y-74957142D01*
X104776190Y-75338095D01*
X104585714Y-73909523D02*
X105252381Y-73909523D01*
X104204762Y-74147619D02*
X104919048Y-74385714D01*
X104919048Y-73766666D01*
X111833334Y-60652381D02*
X111500000Y-60176190D01*
X111261905Y-60652381D02*
X111261905Y-59652381D01*
X111642858Y-59652381D01*
X111738096Y-59700000D01*
X111785715Y-59747619D01*
X111833334Y-59842857D01*
X111833334Y-59985714D01*
X111785715Y-60080952D01*
X111738096Y-60128571D01*
X111642858Y-60176190D01*
X111261905Y-60176190D01*
X112166667Y-59652381D02*
X112785715Y-59652381D01*
X112452381Y-60033333D01*
X112595239Y-60033333D01*
X112690477Y-60080952D01*
X112738096Y-60128571D01*
X112785715Y-60223810D01*
X112785715Y-60461905D01*
X112738096Y-60557143D01*
X112690477Y-60604762D01*
X112595239Y-60652381D01*
X112309524Y-60652381D01*
X112214286Y-60604762D01*
X112166667Y-60557143D01*
M02*
